<svg width="33" height="27" viewBox="0 0 33 27" fill="none" xmlns="http://www.w3.org/2000/svg">
<path d="M27.8052 4.54468C27.8052 2.51951 26.3331 0.862549 24.534 0.862549H19.6272V4.54468H24.534V9.42351L18.8421 17.4321H13.0848V8.22681H6.54239C2.92772 8.22681 0 11.5223 0 15.5911V21.1143H3.27119C3.27119 24.1704 5.4629 26.6375 8.17799 26.6375C10.8931 26.6375 13.0848 24.1704 13.0848 21.1143H20.4123L27.8052 10.7123V4.54468ZM3.27119 17.4321V15.5911C3.27119 13.5659 4.74323 11.9089 6.54239 11.9089H9.81359V17.4321H3.27119ZM8.17799 22.9553C7.27841 22.9553 6.54239 22.1269 6.54239 21.1143H9.81359C9.81359 22.1269 9.07757 22.9553 8.17799 22.9553Z" fill="#09A26B"/>
<path d="M4.90674 2.70364H13.0847V6.38578H4.90674V2.70364ZM27.8051 15.5911C25.09 15.5911 22.8983 18.0581 22.8983 21.1143C22.8983 24.1705 25.09 26.6375 27.8051 26.6375C30.5202 26.6375 32.7119 24.1705 32.7119 21.1143C32.7119 18.0581 30.5202 15.5911 27.8051 15.5911ZM27.8051 22.9554C26.9055 22.9554 26.1695 22.1269 26.1695 21.1143C26.1695 20.1017 26.9055 19.2732 27.8051 19.2732C28.7047 19.2732 29.4407 20.1017 29.4407 21.1143C29.4407 22.1269 28.7047 22.9554 27.8051 22.9554Z" fill="#09A26B"/>
</svg>
