<svg width="70" height="70" viewBox="0 0 70 70" fill="none" xmlns="http://www.w3.org/2000/svg">
<g clip-path="url(#clip0_7_32)">
<circle cx="34.9971" cy="35.2625" r="35" fill="white"/>
<path d="M38.5204 15.4C38.2142 15.3446 36.7354 15.0967 35 15.0967C33.2646 15.0967 31.7858 15.3446 31.4796 15.4C31.3046 15.4292 31.2346 15.26 31.3687 15.1579C31.4912 15.0704 35 12.3987 35 12.3987L38.6283 15.1579C38.7654 15.26 38.6983 15.4321 38.5204 15.4ZM32.4596 32.7396C32.4596 32.7396 32.2729 32.8067 32.2262 32.97C32.9612 33.5329 33.4658 34.8192 35 34.8192C36.5342 34.8192 37.0417 33.5358 37.7737 32.9671C37.7271 32.8037 37.5404 32.7396 37.5404 32.7396C37.5404 32.7396 36.5779 32.9642 35 32.9642C33.4192 32.9642 32.4596 32.7396 32.4596 32.7396ZM35 30.5754C34.5742 30.5754 34.4808 30.415 34.1892 30.415C33.915 30.415 33.3754 30.6367 33.2587 30.8408C33.2663 30.9446 33.3095 31.0425 33.3812 31.1179C33.9996 31.2083 34.2825 31.5554 35 31.5554C35.7204 31.5554 36.0004 31.2083 36.6217 31.1179C36.6915 31.0416 36.7336 30.944 36.7412 30.8408C36.6246 30.6367 36.0879 30.4179 35.8108 30.415C35.5192 30.415 35.4258 30.5754 35 30.5754ZM69.9621 37.1962C69.9179 38.0279 69.844 38.8578 69.7404 39.6842C65.7737 40.3404 64.3592 36.8083 60.2992 36.9862C60.5412 37.8467 60.7367 38.7246 60.8912 39.62C64.2396 39.62 65.5871 42.7496 69.3146 42.2887C69.1192 43.2454 68.8829 44.1904 68.6087 45.1179C65.6629 45.4096 64.6275 42.4812 61.2179 42.5629C61.2471 43.0471 61.2617 43.5371 61.2617 44.0329L61.2471 44.8496L67.8679 47.3754C67.5215 48.3131 67.1351 49.2356 66.71 50.1404C64.7208 50.0325 64.0354 47.4804 61.0079 47.6817C60.9173 48.3322 60.8025 48.9792 60.6637 49.6212C63.2917 49.4375 63.8575 51.8583 65.7387 52.0537C65.2594 52.9276 64.7437 53.781 64.1929 54.6117C63.0787 54.0137 62.1104 52.2112 59.9929 52.1004C60.2121 51.4282 60.4029 50.747 60.5646 50.0587C58.6862 50.0587 56.5396 49.3296 54.7429 47.6904C55.3262 44.3654 50.1696 40.985 50.1696 38.5525C50.1696 35.91 51.5054 34.4487 51.5054 30.8875C51.5054 28.2421 50.2221 25.375 48.2854 23.415C47.9255 23.0476 47.5231 22.7245 47.0867 22.4525C48.8658 24.6517 50.2308 27.2621 50.2308 30.2837C50.2308 33.6379 48.6704 35.4083 48.6704 38.5058C48.6704 41.6004 53.2 44.2808 53.2 47.4717C53.2 48.7258 52.7975 49.9508 51.4733 52.3629C53.5062 54.3929 56.1546 55.5012 57.8608 55.5012C58.415 55.5012 58.7154 55.3321 58.9137 54.8975C59.085 54.5212 59.2474 54.141 59.4008 53.7571C61.2383 53.8271 62.0842 55.4983 63.1021 56.1662C62.5421 56.9187 61.9558 57.6421 61.3404 58.3421C60.6579 57.5867 59.7392 56.315 58.3946 55.9621C58.1553 56.4292 57.9024 56.8893 57.6362 57.3417C58.7912 57.6567 59.5817 58.8233 60.1942 59.5904C59.5336 60.2751 58.8457 60.9328 58.1321 61.5621C57.6858 60.865 56.9887 59.9842 56.2071 59.5087C55.9199 59.8967 55.6213 60.276 55.3117 60.6462C55.9737 61.0983 56.56 61.9062 56.9421 62.5654C56.1167 63.2275 55.2621 63.8575 54.3754 64.4467C53.9379 60.8883 49.0846 58.4529 50.3942 54.3258C49.9654 55.055 49.4521 55.9621 49.4521 57.0587C49.4521 60.0454 52.6312 62.4137 52.8879 65.3829C52.2287 65.7767 51.5521 66.1471 50.8667 66.5C50.75 63.2362 47.3842 59.6662 47.3842 56.9917C47.3842 54.0021 51.2983 50.9979 51.2983 47.4717C51.2983 43.9425 46.7804 41.4954 46.7804 38.3979C46.7804 35.3004 48.7025 33.5183 48.7025 29.5458C48.7025 26.6379 47.32 23.695 45.185 21.8167C44.823 21.4895 44.4212 21.2092 43.9892 20.9825C46.0017 23.3975 47.1683 25.5908 47.1683 28.9129C47.1683 32.6462 44.9662 34.7171 44.9662 38.3746C44.9662 42.0321 49.3996 44.0621 49.3996 47.4746C49.3996 50.8812 45.2725 53.7512 45.2725 57.2542C45.2725 60.4392 48.9096 63.6183 48.965 67.3954C48.1675 67.743 47.357 68.0602 46.5354 68.3462C46.9992 64.5283 42.9042 60.5908 42.9042 57.4758C42.9042 54.0721 47.1829 51.1437 47.1829 47.4717C47.1829 43.7967 42.8342 42.0904 42.8342 38.3192C42.8342 34.5508 45.5029 32.4654 45.5029 28.3004C45.4942 26.7591 45.1346 25.24 44.4514 23.8583C43.7681 22.4766 42.7792 21.2688 41.5596 20.3262L41.4108 20.2154C41.1892 20.0521 41.0083 20.2475 41.1658 20.4429C42.8225 22.5137 43.7092 24.605 43.7092 27.7054C43.7092 31.5117 40.6408 34.6062 40.6408 38.2987C40.6408 42.6533 44.7592 43.8987 44.7592 47.4717C44.7592 51.0446 40.3433 53.9029 40.3433 57.6946C40.3433 61.2121 44.5229 65.1175 43.8054 69.1775C42.9632 69.3967 42.1128 69.5835 41.2562 69.7375C42.0408 64.6829 37.94 61.0517 37.94 57.7442C37.94 54.1625 42.5133 50.9717 42.5133 47.4717C42.5133 44.1729 39.2321 43.0937 38.8004 39.7162C38.7421 39.2554 38.3717 38.9142 37.8612 38.9987C37.1933 39.1212 36.3387 39.5587 34.9971 39.5587C33.6554 39.5587 32.8008 39.1212 32.1329 38.9987C31.6254 38.9142 31.255 39.2554 31.1967 39.7162C30.765 43.0937 27.4808 44.17 27.4808 47.4746C27.4808 50.9717 32.0542 54.1625 32.0542 57.7412C32.0542 61.0517 27.9562 64.6829 28.7379 69.7375C27.8816 69.5823 27.0313 69.3955 26.1887 69.1775C25.4712 65.1175 29.6508 61.215 29.6508 57.6946C29.6508 53.9029 25.235 51.0446 25.235 47.4717C25.235 43.8987 29.3533 42.6533 29.3533 38.2987C29.3533 34.6062 26.285 31.5146 26.285 27.7025C26.285 24.605 27.1717 22.5108 28.8312 20.44C28.9858 20.2475 28.805 20.0521 28.5833 20.2154L28.4375 20.3262C27.2185 21.2678 26.2301 22.4748 25.5474 23.8555C24.8646 25.2362 24.5054 26.7543 24.4971 28.2946C24.4971 32.4596 27.1658 34.545 27.1658 38.3162C27.1658 42.0846 22.8142 43.7937 22.8142 47.4687C22.8142 51.1379 27.0929 54.0662 27.0929 57.4729C27.0929 60.5879 23.0008 64.5254 23.4646 68.3433C22.6431 68.0569 21.8326 67.7398 21.035 67.3925C21.0904 63.6125 24.7246 60.4333 24.7246 57.2483C24.7246 53.7483 20.6004 50.8754 20.6004 47.4687C20.6004 44.0592 25.0308 42.0262 25.0308 38.3687C25.0308 34.7142 22.8317 32.6404 22.8317 28.9071C22.8317 25.5821 23.9983 23.3946 26.0108 20.9796C25.5781 21.204 25.1761 21.4834 24.815 21.8108C23.7274 22.7869 22.8534 23.9775 22.2481 25.3076C21.6428 26.6378 21.3191 28.0787 21.2975 29.54C21.2975 33.5125 23.2196 35.2946 23.2196 38.3921C23.2196 41.4925 18.7017 43.9337 18.7017 47.4658C18.7017 50.995 22.6158 53.9992 22.6158 56.9858C22.6158 59.6633 19.2471 63.2333 19.1333 66.4942C18.4473 66.1444 17.7732 65.7718 17.1121 65.3771C17.3658 62.4108 20.5479 60.0396 20.5479 57.0529C20.5479 55.9592 20.0346 55.0492 19.6058 54.3229C20.9125 58.4471 16.0592 60.8854 15.6217 64.4408C14.7383 63.8526 13.8819 63.2249 13.055 62.5596C13.4371 61.9033 14.0233 61.0925 14.6883 60.6433C14.377 60.2727 14.0774 59.8924 13.79 59.5029C13.0083 59.9783 12.3112 60.8621 11.865 61.5562C11.1517 60.9277 10.4638 60.2709 9.8029 59.5875C10.4154 58.8175 11.2087 57.6508 12.3637 57.3358C12.0963 56.8836 11.8424 56.4236 11.6025 55.9562C10.2608 56.3121 9.33915 57.5837 8.65665 58.3392C8.04197 57.6373 7.45526 56.9115 6.8979 56.1633C7.91874 55.4925 8.75874 53.8212 10.5992 53.7512C10.7537 54.1333 10.9142 54.5154 11.0862 54.8887C11.2846 55.3262 11.5821 55.4954 12.1362 55.4954C13.8454 55.4954 16.4908 54.3871 18.5237 52.3571C17.2025 49.9479 16.8029 48.7229 16.8029 47.4658C16.8029 44.275 21.3296 41.5975 21.3296 38.5C21.3296 35.4054 19.7692 33.635 19.7692 30.2808C19.7692 27.2562 21.1342 24.6487 22.9133 22.4467C22.4759 22.7185 22.0724 23.0416 21.7117 23.4092C19.7779 25.375 18.4917 28.2421 18.4917 30.8846C18.4917 34.4458 19.8304 35.91 19.8304 38.5525C19.8304 40.985 14.6737 44.3654 15.2571 47.6875C13.4575 49.3267 11.3108 50.0587 9.43249 50.0587C9.59541 50.7464 9.78514 51.4275 10.0012 52.1004C7.88665 52.2112 6.92124 54.0137 5.80124 54.6087C5.2501 53.7793 4.73436 52.9269 4.2554 52.0537C6.13957 51.8554 6.7054 49.4375 9.33624 49.6212C9.19762 48.9792 9.08282 48.3322 8.99207 47.6817C5.96457 47.4775 5.27624 50.0325 3.28707 50.1404C2.8629 49.2356 2.47755 48.3131 2.13207 47.3754L8.74999 44.8467L8.7354 44.03C8.7354 43.5342 8.74999 43.0442 8.77624 42.5571C5.36957 42.4783 4.33124 45.4037 1.3854 45.115C1.11225 44.182 0.877746 43.2382 0.682487 42.2858C4.40415 42.7437 5.75749 39.6142 9.10582 39.6171C9.25551 38.7284 9.45217 37.8483 9.69499 36.9804C5.63499 36.8054 4.21749 40.3346 0.256654 39.6783C0.15259 38.853 0.078652 38.0241 0.034987 37.1933C4.64332 37.7067 6.36707 33.9208 10.5642 34.3846C10.9572 33.3864 11.4151 32.415 11.935 31.4767C6.67624 30.5521 4.89124 34.9504 -0.00292969 34.2767C0.527904 15.4 15.995 0.262497 35 0.262497C54.005 0.262497 69.4721 15.4 70 34.2796C65.1029 34.9562 63.3208 30.5579 58.0621 31.4796C58.5783 32.4129 59.0392 33.3871 59.4329 34.3875C63.6271 33.9237 65.3537 37.7125 69.9621 37.1962ZM19.95 22.5108C17.3717 21.4579 14.2508 21.7 11.585 23.415C11.1708 20.9329 9.82624 18.7279 7.90999 17.4008C7.64457 17.2171 7.3704 17.3892 7.39374 17.6983C7.79915 22.9367 4.73374 27.4867 0.96832 31.4883C4.8504 32.655 8.15499 27.6558 13.1892 29.4C14.9994 26.707 17.2915 24.3714 19.95 22.5108ZM35 19.3404C31.7508 19.3404 29.0267 21.1779 28.315 23.555C28.2567 23.7358 28.3325 23.8554 28.5425 23.7592C29.1258 23.4967 29.7937 23.3712 30.5171 23.3712C31.8412 23.3712 33.0108 23.8583 33.7021 24.7042C34.0054 25.7133 34.0317 27.1746 33.6875 28.0058C33.1421 27.8833 32.9437 27.4633 32.41 27.4633C31.8792 27.4633 31.465 27.8367 30.5608 27.8367C29.6567 27.8367 29.5517 27.4108 28.9567 27.4108C28.2567 27.4108 28.1283 28.1312 28.1283 28.9421C28.1283 32.5646 31.4592 37.5462 35 37.5462C38.5379 37.5462 41.8658 32.5646 41.8658 28.9421C41.8658 28.1283 41.6996 27.4342 40.9704 27.3379C40.5402 27.6917 39.9922 27.8699 39.4362 27.8367C38.5321 27.8367 38.2842 27.4633 37.7504 27.4633C37.1087 27.4633 37.1729 28.8196 36.4087 28.8925C35.8983 27.6704 35.875 26.1012 36.2979 24.7042C36.9892 23.8583 38.1558 23.3712 39.4829 23.3712C40.2062 23.3712 40.8742 23.4996 41.4546 23.7592C41.6646 23.8554 41.7375 23.7358 41.685 23.555C40.9733 21.1808 38.2492 19.3404 35 19.3404ZM40.1742 24.5379C39.3954 24.5379 38.4825 24.7771 37.9079 25.4158C37.8455 25.6147 37.8538 25.829 37.9312 26.0225C39.3458 25.5383 40.5912 25.5179 41.195 26.1917C41.5158 25.9 41.6179 25.6375 41.6179 25.3342C41.6179 24.8646 41.1396 24.5379 40.1742 24.5379ZM28.805 26.1917C29.4875 25.5092 30.9254 25.5383 32.4158 26.0896C32.4829 25.3487 31.1529 24.535 29.8258 24.535C28.8604 24.535 28.3821 24.8617 28.3821 25.3342C28.3821 25.6375 28.4842 25.9029 28.805 26.1917ZM51.205 13.9329C48.6383 14.1167 46.4129 14.9975 44.6075 16.4646C45.3415 14.3759 46.3403 12.39 47.5796 10.5554C44.3129 10.9025 41.58 12.0983 39.5879 14.14L38.0246 10.0479L41.4896 6.99125L36.8521 6.66166L35 2.34791L33.1479 6.66458L28.5104 6.99125L31.9725 10.0508L30.415 14.14C28.42 12.0983 25.69 10.9025 22.4233 10.5554C23.6592 12.391 24.656 14.3768 25.3896 16.4646C23.5871 14.9975 21.3587 14.1167 18.7921 13.9329C20.3321 15.9133 21.6971 18.0221 22.7062 20.2912C22.8229 20.5479 23.0679 20.6325 23.3304 20.4983C26.9555 18.6974 30.9493 17.7628 34.9971 17.7683C39.1912 17.7683 43.1492 18.7542 46.6667 20.4983C46.9321 20.6325 47.1771 20.5479 47.2908 20.2942C48.3029 18.0221 49.6679 15.9133 51.2079 13.9358L51.205 13.9329ZM56.8108 29.4029C61.845 27.6587 65.1525 32.655 69.0317 31.4912C65.2662 27.4896 62.2037 22.9396 62.6092 17.6983C62.6325 17.3921 62.3554 17.2171 62.0929 17.4008C60.1767 18.7308 58.8292 20.9358 58.4179 23.415C55.7521 21.7029 52.6312 21.4608 50.0529 22.5137C52.7101 24.375 55.001 26.7105 56.8108 29.4029Z" fill="#0D2E30"/>
</g>
<defs>
<clipPath id="clip0_7_32">
<rect width="70" height="70" rx="35" fill="white"/>
</clipPath>
</defs>
</svg>
