<svg width="70" height="70" viewBox="0 0 70 70" fill="none" xmlns="http://www.w3.org/2000/svg">
<g clip-path="url(#clip0_2_14)">
<circle cx="34.9971" cy="35.2625" r="35" fill="white"/>
<path d="M38.5205 15.4C38.2143 15.3446 36.7355 15.0967 35.0001 15.0967C33.2647 15.0967 31.7859 15.3446 31.4797 15.4C31.3047 15.4292 31.2347 15.26 31.3689 15.1579C31.4914 15.0704 35.0001 12.3987 35.0001 12.3987L38.6284 15.1579C38.7655 15.26 38.6984 15.4321 38.5205 15.4ZM32.4597 32.7396C32.4597 32.7396 32.273 32.8067 32.2264 32.97C32.9614 33.5329 33.4659 34.8192 35.0001 34.8192C36.5343 34.8192 37.0418 33.5358 37.7739 32.9671C37.7272 32.8037 37.5405 32.7396 37.5405 32.7396C37.5405 32.7396 36.578 32.9642 35.0001 32.9642C33.4193 32.9642 32.4597 32.7396 32.4597 32.7396ZM35.0001 30.5754C34.5743 30.5754 34.4809 30.415 34.1893 30.415C33.9151 30.415 33.3755 30.6367 33.2589 30.8408C33.2664 30.9446 33.3097 31.0425 33.3814 31.1179C33.9997 31.2083 34.2826 31.5554 35.0001 31.5554C35.7205 31.5554 36.0005 31.2083 36.6218 31.1179C36.6916 31.0416 36.7337 30.944 36.7414 30.8408C36.6247 30.6367 36.088 30.4179 35.8109 30.415C35.5193 30.415 35.4259 30.5754 35.0001 30.5754ZM69.9622 37.1962C69.918 38.0279 69.8441 38.8578 69.7405 39.6842C65.7739 40.3404 64.3593 36.8083 60.2993 36.9862C60.5414 37.8467 60.7368 38.7246 60.8914 39.62C64.2397 39.62 65.5872 42.7496 69.3147 42.2887C69.1193 43.2454 68.883 44.1904 68.6089 45.1179C65.663 45.4096 64.6276 42.4812 61.218 42.5629C61.2472 43.0471 61.2618 43.5371 61.2618 44.0329L61.2472 44.8496L67.868 47.3754C67.5216 48.3131 67.1353 49.2356 66.7101 50.1404C64.7209 50.0325 64.0355 47.4804 61.008 47.6817C60.9174 48.3322 60.8026 48.9792 60.6639 49.6212C63.2918 49.4375 63.8576 51.8583 65.7389 52.0537C65.2595 52.9276 64.7438 53.781 64.193 54.6117C63.0789 54.0137 62.1105 52.2112 59.993 52.1004C60.2123 51.4282 60.403 50.747 60.5647 50.0587C58.6864 50.0587 56.5397 49.3296 54.743 47.6904C55.3264 44.3654 50.1697 40.985 50.1697 38.5525C50.1697 35.91 51.5055 34.4487 51.5055 30.8875C51.5055 28.2421 50.2222 25.375 48.2855 23.415C47.9256 23.0476 47.5232 22.7245 47.0868 22.4525C48.8659 24.6517 50.2309 27.2621 50.2309 30.2837C50.2309 33.6379 48.6705 35.4083 48.6705 38.5058C48.6705 41.6004 53.2001 44.2808 53.2001 47.4717C53.2001 48.7258 52.7976 49.9508 51.4734 52.3629C53.5064 54.3929 56.1547 55.5012 57.8609 55.5012C58.4151 55.5012 58.7155 55.3321 58.9139 54.8975C59.0851 54.5212 59.2475 54.141 59.4009 53.7571C61.2384 53.8271 62.0843 55.4983 63.1022 56.1662C62.5422 56.9187 61.9559 57.6421 61.3405 58.3421C60.658 57.5867 59.7393 56.315 58.3947 55.9621C58.1554 56.4292 57.9026 56.8893 57.6364 57.3417C58.7914 57.6567 59.5818 58.8233 60.1943 59.5904C59.5337 60.2751 58.8458 60.9328 58.1322 61.5621C57.6859 60.865 56.9889 59.9842 56.2072 59.5087C55.92 59.8967 55.6214 60.276 55.3118 60.6462C55.9739 61.0983 56.5601 61.9062 56.9422 62.5654C56.1168 63.2275 55.2622 63.8575 54.3755 64.4467C53.938 60.8883 49.0847 58.4529 50.3943 54.3258C49.9655 55.055 49.4522 55.9621 49.4522 57.0587C49.4522 60.0454 52.6314 62.4137 52.888 65.3829C52.2289 65.7767 51.5522 66.1471 50.8668 66.5C50.7501 63.2362 47.3843 59.6662 47.3843 56.9917C47.3843 54.0021 51.2984 50.9979 51.2984 47.4717C51.2984 43.9425 46.7805 41.4954 46.7805 38.3979C46.7805 35.3004 48.7026 33.5183 48.7026 29.5458C48.7026 26.6379 47.3201 23.695 45.1851 21.8167C44.8231 21.4895 44.4213 21.2092 43.9893 20.9825C46.0018 23.3975 47.1684 25.5908 47.1684 28.9129C47.1684 32.6462 44.9664 34.7171 44.9664 38.3746C44.9664 42.0321 49.3997 44.0621 49.3997 47.4746C49.3997 50.8812 45.2726 53.7512 45.2726 57.2542C45.2726 60.4392 48.9097 63.6183 48.9651 67.3954C48.1676 67.743 47.3571 68.0602 46.5355 68.3462C46.9993 64.5283 42.9043 60.5908 42.9043 57.4758C42.9043 54.0721 47.183 51.1437 47.183 47.4717C47.183 43.7967 42.8343 42.0904 42.8343 38.3192C42.8343 34.5508 45.503 32.4654 45.503 28.3004C45.4944 26.7591 45.1348 25.24 44.4515 23.8583C43.7683 22.4766 42.7793 21.2688 41.5597 20.3262L41.4109 20.2154C41.1893 20.0521 41.0084 20.2475 41.1659 20.4429C42.8226 22.5137 43.7093 24.605 43.7093 27.7054C43.7093 31.5117 40.6409 34.6062 40.6409 38.2987C40.6409 42.6533 44.7593 43.8987 44.7593 47.4717C44.7593 51.0446 40.3434 53.9029 40.3434 57.6946C40.3434 61.2121 44.523 65.1175 43.8055 69.1775C42.9633 69.3967 42.1129 69.5835 41.2564 69.7375C42.0409 64.6829 37.9401 61.0517 37.9401 57.7442C37.9401 54.1625 42.5134 50.9717 42.5134 47.4717C42.5134 44.1729 39.2322 43.0937 38.8005 39.7162C38.7422 39.2554 38.3718 38.9142 37.8614 38.9987C37.1934 39.1212 36.3389 39.5587 34.9972 39.5587C33.6555 39.5587 32.8009 39.1212 32.133 38.9987C31.6255 38.9142 31.2551 39.2554 31.1968 39.7162C30.7651 43.0937 27.4809 44.17 27.4809 47.4746C27.4809 50.9717 32.0543 54.1625 32.0543 57.7412C32.0543 61.0517 27.9564 64.6829 28.738 69.7375C27.8817 69.5823 27.0314 69.3955 26.1889 69.1775C25.4714 65.1175 29.6509 61.215 29.6509 57.6946C29.6509 53.9029 25.2351 51.0446 25.2351 47.4717C25.2351 43.8987 29.3534 42.6533 29.3534 38.2987C29.3534 34.6062 26.2851 31.5146 26.2851 27.7025C26.2851 24.605 27.1718 22.5108 28.8314 20.44C28.9859 20.2475 28.8051 20.0521 28.5834 20.2154L28.4376 20.3262C27.2187 21.2679 26.2303 22.4748 25.5475 23.8555C24.8647 25.2362 24.5055 26.7543 24.4972 28.2946C24.4972 32.4596 27.1659 34.545 27.1659 38.3162C27.1659 42.0846 22.8143 43.7937 22.8143 47.4687C22.8143 51.1379 27.093 54.0662 27.093 57.4729C27.093 60.5879 23.0009 64.5254 23.4647 68.3433C22.6432 68.0569 21.8328 67.7398 21.0351 67.3925C21.0905 63.6125 24.7247 60.4333 24.7247 57.2483C24.7247 53.7483 20.6005 50.8754 20.6005 47.4687C20.6005 44.0592 25.0309 42.0262 25.0309 38.3687C25.0309 34.7142 22.8318 32.6404 22.8318 28.9071C22.8318 25.5821 23.9984 23.3946 26.0109 20.9796C25.5782 21.204 25.1763 21.4834 24.8151 21.8108C23.7275 22.7869 22.8536 23.9775 22.2482 25.3076C21.6429 26.6378 21.3192 28.0787 21.2976 29.54C21.2976 33.5125 23.2197 35.2946 23.2197 38.3921C23.2197 41.4925 18.7018 43.9337 18.7018 47.4658C18.7018 50.995 22.6159 53.9992 22.6159 56.9858C22.6159 59.6633 19.2472 63.2333 19.1334 66.4942C18.4475 66.1444 17.7733 65.7718 17.1122 65.3771C17.3659 62.4108 20.548 60.0396 20.548 57.0529C20.548 55.9592 20.0347 55.0492 19.6059 54.3229C20.9126 58.4471 16.0593 60.8854 15.6218 64.4408C14.7384 63.8526 13.882 63.2249 13.0551 62.5596C13.4372 61.9033 14.0234 61.0925 14.6884 60.6433C14.3771 60.2727 14.0775 59.8924 13.7901 59.5029C13.0084 59.9783 12.3114 60.8621 11.8651 61.5562C11.1518 60.9277 10.4639 60.2709 9.80303 59.5875C10.4155 58.8175 11.2089 57.6508 12.3639 57.3358C12.0964 56.8836 11.8426 56.4236 11.6026 55.9562C10.2609 56.3121 9.33928 57.5837 8.65678 58.3392C8.04209 57.6373 7.45538 56.9115 6.89803 56.1633C7.91886 55.4925 8.75886 53.8212 10.5993 53.7512C10.7539 54.1333 10.9143 54.5154 11.0864 54.8887C11.2847 55.3262 11.5822 55.4954 12.1364 55.4954C13.8455 55.4954 16.4909 54.3871 18.5239 52.3571C17.2026 49.9479 16.803 48.7229 16.803 47.4658C16.803 44.275 21.3297 41.5975 21.3297 38.5C21.3297 35.4054 19.7693 33.635 19.7693 30.2808C19.7693 27.2562 21.1343 24.6487 22.9134 22.4467C22.476 22.7185 22.0726 23.0416 21.7118 23.4092C19.778 25.375 18.4918 28.2421 18.4918 30.8846C18.4918 34.4458 19.8305 35.91 19.8305 38.5525C19.8305 40.985 14.6739 44.3654 15.2572 47.6875C13.4576 49.3267 11.3109 50.0587 9.43261 50.0587C9.59554 50.7464 9.78526 51.4275 10.0014 52.1004C7.88678 52.2112 6.92136 54.0137 5.80136 54.6087C5.25023 53.7793 4.73449 52.9269 4.25553 52.0537C6.13969 51.8554 6.70553 49.4375 9.33636 49.6212C9.19775 48.9792 9.08295 48.3322 8.99219 47.6817C5.96469 47.4775 5.27636 50.0325 3.28719 50.1404C2.86303 49.2356 2.47768 48.3131 2.13219 47.3754L8.75011 44.8467L8.73553 44.03C8.73553 43.5342 8.75011 43.0442 8.77636 42.5571C5.36969 42.4783 4.33136 45.4037 1.38553 45.115C1.11237 44.182 0.877868 43.2382 0.682609 42.2858C4.40428 42.7437 5.75761 39.6142 9.10594 39.6171C9.25563 38.7284 9.45229 37.8483 9.69511 36.9804C5.63511 36.8054 4.21761 40.3346 0.256776 39.6783C0.152712 38.853 0.0787741 38.0241 0.0351091 37.1933C4.64344 37.7067 6.36719 33.9208 10.5643 34.3846C10.9573 33.3864 11.4152 32.415 11.9351 31.4767C6.67636 30.5521 4.89136 34.9504 -0.00280762 34.2767C0.528026 15.4 15.9951 0.262497 35.0001 0.262497C54.0051 0.262497 69.4722 15.4 70.0001 34.2796C65.103 34.9562 63.3209 30.5579 58.0622 31.4796C58.5784 32.4129 59.0393 33.3871 59.433 34.3875C63.6272 33.9237 65.3539 37.7125 69.9622 37.1962ZM19.9501 22.5108C17.3718 21.4579 14.2509 21.7 11.5851 23.415C11.1709 20.9329 9.82636 18.7279 7.91011 17.4008C7.64469 17.2171 7.37053 17.3892 7.39386 17.6983C7.79928 22.9367 4.73386 27.4867 0.968442 31.4883C4.85053 32.655 8.15511 27.6558 13.1893 29.4C14.9996 26.707 17.2916 24.3714 19.9501 22.5108ZM35.0001 19.3404C31.7509 19.3404 29.0268 21.1779 28.3151 23.555C28.2568 23.7358 28.3326 23.8554 28.5426 23.7592C29.1259 23.4967 29.7939 23.3712 30.5172 23.3712C31.8414 23.3712 33.0109 23.8583 33.7022 24.7042C34.0055 25.7133 34.0318 27.1746 33.6876 28.0058C33.1422 27.8833 32.9439 27.4633 32.4101 27.4633C31.8793 27.4633 31.4651 27.8367 30.5609 27.8367C29.6568 27.8367 29.5518 27.4108 28.9568 27.4108C28.2568 27.4108 28.1284 28.1312 28.1284 28.9421C28.1284 32.5646 31.4593 37.5462 35.0001 37.5462C38.538 37.5462 41.8659 32.5646 41.8659 28.9421C41.8659 28.1283 41.6997 27.4342 40.9705 27.3379C40.5404 27.6917 39.9924 27.8699 39.4364 27.8367C38.5322 27.8367 38.2843 27.4633 37.7505 27.4633C37.1089 27.4633 37.173 28.8196 36.4089 28.8925C35.8984 27.6704 35.8751 26.1012 36.298 24.7042C36.9893 23.8583 38.1559 23.3712 39.483 23.3712C40.2064 23.3712 40.8743 23.4996 41.4547 23.7592C41.6647 23.8554 41.7376 23.7358 41.6851 23.555C40.9734 21.1808 38.2493 19.3404 35.0001 19.3404ZM40.1743 24.5379C39.3955 24.5379 38.4826 24.7771 37.908 25.4158C37.8456 25.6147 37.8539 25.829 37.9314 26.0225C39.3459 25.5383 40.5914 25.5179 41.1951 26.1917C41.5159 25.9 41.618 25.6375 41.618 25.3342C41.618 24.8646 41.1397 24.5379 40.1743 24.5379ZM28.8051 26.1917C29.4876 25.5092 30.9255 25.5383 32.4159 26.0896C32.483 25.3487 31.153 24.535 29.8259 24.535C28.8605 24.535 28.3822 24.8617 28.3822 25.3342C28.3822 25.6375 28.4843 25.9029 28.8051 26.1917ZM51.2051 13.9329C48.6384 14.1167 46.413 14.9975 44.6076 16.4646C45.3416 14.3759 46.3405 12.39 47.5797 10.5554C44.313 10.9025 41.5801 12.0983 39.588 14.14L38.0247 10.0479L41.4897 6.99125L36.8522 6.66166L35.0001 2.34791L33.148 6.66458L28.5105 6.99125L31.9726 10.0508L30.4151 14.14C28.4201 12.0983 25.6901 10.9025 22.4234 10.5554C23.6593 12.391 24.6561 14.3768 25.3897 16.4646C23.5872 14.9975 21.3589 14.1167 18.7922 13.9329C20.3322 15.9133 21.6972 18.0221 22.7064 20.2912C22.823 20.5479 23.068 20.6325 23.3305 20.4983C26.9556 18.6974 30.9494 17.7628 34.9972 17.7683C39.1914 17.7683 43.1493 18.7542 46.6668 20.4983C46.9322 20.6325 47.1772 20.5479 47.2909 20.2942C48.303 18.0221 49.668 15.9133 51.208 13.9358L51.2051 13.9329ZM56.8109 29.4029C61.8451 27.6587 65.1526 32.655 69.0318 31.4912C65.2664 27.4896 62.2039 22.9396 62.6093 17.6983C62.6326 17.3921 62.3555 17.2171 62.093 17.4008C60.1768 18.7308 58.8293 20.9358 58.418 23.415C55.7522 21.7029 52.6314 21.4608 50.053 22.5137C52.7102 24.375 55.0012 26.7105 56.8109 29.4029Z" fill="#09A26B"/>
</g>
<defs>
<clipPath id="clip0_2_14">
<rect width="70" height="70" rx="35" fill="white"/>
</clipPath>
</defs>
</svg>
