<svg width="25" height="27" viewBox="0 0 25 27" fill="none" xmlns="http://www.w3.org/2000/svg">
<path d="M12.4008 10.6206H14.881V6.90041H18.6012V4.42025H14.881V0.700012H12.4008V4.42025H8.68056V6.90041H12.4008V10.6206ZM7.44048 21.7814C6.07639 21.7814 4.97272 22.8974 4.97272 24.2615C4.97272 25.6256 6.07639 26.7417 7.44048 26.7417C8.80456 26.7417 9.92064 25.6256 9.92064 24.2615C9.92064 22.8974 8.80456 21.7814 7.44048 21.7814ZM19.8413 21.7814C18.4772 21.7814 17.3735 22.8974 17.3735 24.2615C17.3735 25.6256 18.4772 26.7417 19.8413 26.7417C21.2054 26.7417 22.3214 25.6256 22.3214 24.2615C22.3214 22.8974 21.2054 21.7814 19.8413 21.7814ZM8.80456 15.581H18.0432C18.9732 15.581 19.7917 15.0725 20.2133 14.3037L25 5.61073L22.8423 4.42025L18.0432 13.1008H9.3378L4.05506 1.94009H0V4.42025H2.48016L6.94444 13.8325L5.27034 16.8582C4.36508 18.52 5.55556 20.5413 7.44048 20.5413H22.3214V18.0611H7.44048L8.80456 15.581Z" fill="white"/>
</svg>
